<svg width="148" height="116" xmlns="http://www.w3.org/2000/svg" version="1.1" xml:space="preserve">
 <defs>
  <linearGradient id="SVGID_1_" x1="0" y1="0.5004" x2="1.00188" y2="0.5004">
   <stop offset="0" stop-color="#F6C43D"/>
   <stop offset="1" stop-color="#FCD975"/>
  </linearGradient>
  <linearGradient id="SVGID_2_" x1="-0.00121" y1="0.5004" x2="1.00072" y2="0.5004">
   <stop offset="0" stop-color="#1480C4"/>
   <stop offset="1" stop-color="#1C99D4"/>
  </linearGradient>
  <linearGradient id="SVGID_3_" x1="-0.00081" y1="0.50047" x2="1.00111" y2="0.50047">
   <stop offset="0" stop-color="#B11E26"/>
   <stop offset="1" stop-color="#C21C24"/>
  </linearGradient>
 </defs>
 <g>
  <title>Layer 1</title>
  <g id="svg_1">
   <g id="svg_2">
    <path class="st0" d="m30.3,32.7l-21.3,0c-5,0 -9,4.1 -9,9l0,64.7c0,5 4.1,9 9,9l21.3,0c5,0 9,-4.1 9,-9l0,-64.7c0.1,-5 -4,-9 -9,-9z" fill="url(#SVGID_1_)" id="svg_3"/>
    <path class="st1" d="m84.6,0l-21.3,0c-5,0 -9,4.1 -9,9l0,97.4c0,5 4.1,9 9,9l21.3,0c5,0 9,-4.1 9,-9l0,-97.4c0,-4.9 -4,-9 -9,-9z" fill="url(#SVGID_2_)" id="svg_4"/>
    <path class="st2" d="m138.7,45.1l-21.3,0c-5,0 -9,4.1 -9,9l0,52.3c0,5 4.1,9 9,9l21.3,0c5,0 9,-4.1 9,-9l0,-52.3c0,-5 -4,-9 -9,-9z" fill="url(#SVGID_3_)" id="svg_5"/>
   </g>
   <g id="svg_6">
    <g id="svg_7">
     <g id="svg_8">
      <path d="m275.7,86.8l11,16.5l-1.5,1c-1.1,-1 -2,-1.5 -2.7,-1.5c-0.7,0 -2.6,0.9 -5.8,2.8c-6.6,3.8 -12.2,6.4 -16.7,7.7c-4.5,1.3 -9.9,2 -16.2,2c-12.5,0 -22.7,-2.9 -30.7,-8.9c-4.7,-3.4 -8.4,-7.7 -11.1,-12.8c-3.1,-5.8 -4.7,-12.2 -4.7,-19.3c0,-9.6 2.8,-17.9 8.4,-24.9c8.4,-10.6 21.1,-15.9 38.1,-15.9c6.2,0 11.6,0.7 16.1,2c4.5,1.3 10.1,3.9 16.8,7.8c3.2,1.8 5.1,2.7 5.8,2.7c0.7,0 1.6,-0.5 2.7,-1.5l1.5,1l-11,16.5l-1.6,-1c0.1,-0.6 0.1,-1.1 0.1,-1.6c0,-1.1 -0.5,-2.2 -1.4,-3.1c-1,-1 -2.7,-2.2 -5.1,-3.5c-6.8,-3.8 -14.1,-5.8 -21.7,-5.8c-9,0 -16.2,2.3 -21.6,6.8c-6.3,5.3 -9.5,12.2 -9.5,20.7c0,8.5 3.2,15.4 9.5,20.7c5.4,4.5 12.6,6.8 21.6,6.8c7.6,0 14.9,-1.9 21.7,-5.8c2.5,-1.4 4.2,-2.6 5.1,-3.6c1,-1 1.4,-2 1.4,-3.2c0,-0.4 0,-0.9 -0.1,-1.5l1.6,-1.1z" id="svg_9"/>
      <path d="m333.6,47.7c10.3,0 18.9,2.6 25.8,7.9c8.2,6.3 12.3,15.1 12.3,26.4c0,10.6 -4.1,19.1 -12.3,25.4c-6.8,5.2 -15.3,7.9 -25.6,7.9c-10.3,0 -18.9,-2.6 -25.6,-7.9c-8.3,-6.3 -12.4,-15 -12.4,-25.9c0,-11.1 4.1,-19.7 12.4,-25.9c6.7,-5.1 15.2,-7.8 25.4,-7.9zm0.1,12.3c-6.7,0 -12.1,2.1 -16.3,6.4c-3.9,4 -5.8,9 -5.8,15.1c0,6 1.9,11 5.8,15c4.2,4.3 9.7,6.5 16.4,6.5c6.7,0 12.1,-2.2 16.3,-6.5c3.9,-4 5.9,-8.9 5.9,-14.8c0,-6.4 -2,-11.5 -5.9,-15.4c-4.3,-4.1 -9.8,-6.2 -16.4,-6.3z" id="svg_10"/>
      <path d="m385.3,108l0,-53c0,-1.2 -0.3,-2.1 -0.8,-2.7c-0.5,-0.6 -1.5,-1.1 -2.9,-1.6l0,-1.6l38,0c7.9,0 14.1,1 18.7,3c6.4,2.8 11,7.4 13.8,13.8c2,4.5 3,9.7 3,15.7c0,11.1 -3.3,19.5 -9.9,25.2c-3,2.5 -6.5,4.4 -10.5,5.5c-4,1.1 -9.1,1.7 -15.1,1.7l-38,0l0,-1.6c1.3,-0.3 2.3,-0.8 2.9,-1.5c0.5,-0.8 0.8,-1.7 0.8,-2.9zm15.5,-5.8l16.5,0c7.6,0 13.1,-1.7 16.5,-5.2c3.6,-3.6 5.4,-8.8 5.4,-15.4c0,-6.7 -1.8,-11.8 -5.4,-15.4c-1.8,-1.8 -4,-3.1 -6.6,-4c-2.6,-0.8 -5.9,-1.2 -10,-1.2l-16.5,0l0,41.2l0.1,0z" id="svg_11"/>
      <path d="m484.2,86.4l0,15.8l41.1,0c1.2,0 2.1,-0.3 2.7,-0.8c0.6,-0.5 1.1,-1.5 1.5,-2.9l1.6,0l0,19.1l-1.6,0c-0.3,-1.3 -0.8,-2.3 -1.5,-2.9c-0.7,-0.6 -1.6,-0.8 -2.8,-0.8l-60.2,0l0,-1.6c1.3,-0.3 2.3,-0.8 2.9,-1.5c0.6,-0.7 0.8,-1.6 0.8,-2.8l0,-53c0,-1.2 -0.3,-2.1 -0.8,-2.7c-0.5,-0.6 -1.5,-1.1 -2.9,-1.6l0,-1.6l58.5,0c1.2,0 2.2,-0.3 2.8,-0.8c0.6,-0.5 1.1,-1.5 1.5,-2.9l1.6,0l0,19.1l-1.6,0c-0.4,-1.4 -0.9,-2.4 -1.5,-2.9c-0.6,-0.5 -1.6,-0.8 -2.8,-0.8l-39.3,0l0,14.2l24.4,0c1.2,0 2.1,-0.3 2.7,-0.8c0.6,-0.5 1.2,-1.5 1.6,-2.9l1.6,0l0,18.7l-1.6,0c-0.4,-1.4 -0.9,-2.3 -1.5,-2.9c-0.6,-0.6 -1.6,-0.8 -2.8,-0.8l-24.4,0l0,0.1z" id="svg_12"/>
     </g>
    </g>
    <g id="svg_13">
     <g id="svg_14">
      <path class="st3" d="m561,86.4l0,21.6c0,1.2 0.3,2.1 0.8,2.7s1.5,1.2 2.9,1.6l0,1.6l-22.9,0l0,-1.6c1.4,-0.3 2.3,-0.8 2.9,-1.5c0.6,-0.7 0.8,-1.6 0.8,-2.8l0,-53c0,-1.2 -0.3,-2.1 -0.8,-2.7c-0.5,-0.6 -1.5,-1.1 -2.9,-1.6l0,-1.6l58.1,0c1.2,0 2.2,-0.3 2.8,-0.8c0.6,-0.5 1.1,-1.5 1.5,-2.9l1.6,0l0,19.2l-1.6,0c-0.4,-1.4 -0.9,-2.3 -1.5,-2.9s-1.6,-0.8 -2.8,-0.8l-38.9,0l0,14.2l24.4,0c1.2,0 2.2,-0.3 2.8,-0.8c0.6,-0.5 1.1,-1.5 1.6,-2.9l1.6,0l0,18.7l-1.6,0c-0.4,-1.4 -0.9,-2.3 -1.5,-2.9c-0.6,-0.6 -1.6,-0.8 -2.8,-0.8l-24.5,0z" fill="#425E9C" id="svg_15"/>
      <path class="st3" d="m649.6,47.7c10.3,0 18.9,2.6 25.8,7.9c8.2,6.3 12.3,15.2 12.3,26.5c0,10.6 -4.1,19.1 -12.3,25.4c-6.8,5.3 -15.4,7.9 -25.7,7.9c-10.3,0 -18.9,-2.6 -25.7,-7.9c-8.3,-6.3 -12.4,-15 -12.4,-25.9c0,-11.1 4.1,-19.7 12.4,-25.9c6.9,-5.2 15.4,-7.9 25.6,-8zm0.1,12.3c-6.7,0 -12.1,2.1 -16.4,6.4c-3.9,4 -5.9,9.1 -5.9,15.1c0,6 2,11 5.9,15.1c4.2,4.3 9.7,6.5 16.4,6.5c6.7,0 12.1,-2.2 16.4,-6.5c3.9,-4 5.9,-8.9 5.9,-14.8c0,-6.4 -2,-11.5 -5.9,-15.4c-4.2,-4.2 -9.7,-6.3 -16.4,-6.4z" fill="#425E9C" id="svg_16"/>
      <path class="st3" d="m716.9,87.3l0,20.7c0,1.2 0.3,2.1 0.8,2.7c0.5,0.6 1.5,1.2 2.9,1.6l0,1.6l-22.9,0l0,-1.6c1.4,-0.3 2.3,-0.8 2.9,-1.5c0.6,-0.7 0.8,-1.6 0.8,-2.8l0,-53c0,-1.2 -0.3,-2.1 -0.8,-2.7c-0.5,-0.6 -1.5,-1.1 -2.9,-1.6l0,-1.6l42.5,0c5.5,0 9.7,0.3 12.6,0.8c2.9,0.6 5.5,1.6 7.8,3c4.7,3.1 7,8 7,14.9c0,5.3 -1.4,9.4 -4.3,12.3s-7.5,5.1 -13.9,6.4l12.3,17.1c2.2,3.2 4,5.3 5.4,6.4c1.3,1.1 2.8,1.9 4.5,2.2l0,1.6l-27.3,0l0,-1.6c2,-0.5 3,-1.4 3,-2.6c0,-0.8 -0.6,-2.1 -1.9,-3.9l-13,-18.5l-15.5,0l0,0.1zm0,-11.7l23.4,0c3.6,0 6.2,-0.4 7.9,-1.2c2.4,-1 3.6,-3.1 3.6,-6.2c0,-2.7 -0.8,-4.7 -2.5,-5.7c-1.7,-1.1 -4.7,-1.6 -8.9,-1.6l-23.4,0l0,14.7l-0.1,0z" fill="#425E9C" id="svg_17"/>
      <path class="st3" d="m841.1,90.7l9.8,14.3l-1.3,1c-0.9,-0.7 -1.7,-1 -2.2,-1c-0.7,0 -2.2,0.7 -4.6,2.1c-5.3,3.1 -10,5.2 -14,6.4c-4.1,1.2 -8.7,1.8 -14,1.8c-10.6,0 -19.2,-2.5 -25.9,-7.6c-3.8,-2.9 -6.8,-6.5 -9,-10.9c-2.4,-4.7 -3.6,-9.8 -3.6,-15.3c0,-7.6 2.2,-14.3 6.6,-20.2c6.9,-9.1 17.5,-13.7 31.8,-13.7c5.3,0 10,0.6 14.1,1.8c4.1,1.2 8.8,3.3 14,6.4c2.4,1.4 3.9,2.1 4.6,2.1c0.5,0 1.3,-0.3 2.2,-1l1.3,1l-9.8,14.2l-1.3,-0.9c0,-0.5 0.1,-0.7 0.1,-0.9c0,-0.3 0.1,-0.6 0.1,-0.7c0,-1.9 -2.6,-4 -7.8,-6.4c-4.9,-2.3 -9.9,-3.4 -14.9,-3.4c-7,0 -12.8,1.8 -17.4,5.5c-5.2,4.2 -7.8,9.5 -7.8,16c0,6.5 2.6,11.9 7.8,16.1c4.6,3.7 10.4,5.5 17.4,5.5c5.5,0 10.9,-1.4 16.4,-4.1c4.2,-2.2 6.4,-4.1 6.4,-5.7c0,-0.1 -0.1,-0.6 -0.2,-1.6l1.2,-0.8z" fill="#425E9C" id="svg_18"/>
      <path class="st3" d="m879.6,86.4l0,15.8l41.2,0c1.2,0 2.1,-0.3 2.7,-0.8c0.6,-0.5 1.1,-1.5 1.5,-2.9l1.6,0l0,19.2l-1.6,0c-0.3,-1.4 -0.8,-2.3 -1.5,-2.9c-0.7,-0.6 -1.6,-0.8 -2.8,-0.8l-60.4,0l0,-1.6c1.4,-0.3 2.3,-0.8 2.9,-1.5c0.6,-0.7 0.8,-1.6 0.8,-2.8l0,-53.1c0,-1.2 -0.3,-2.1 -0.8,-2.7c-0.5,-0.6 -1.5,-1.1 -2.9,-1.6l0,-1.6l58.6,0c1.2,0 2.2,-0.3 2.8,-0.8c0.6,-0.5 1.1,-1.5 1.5,-2.9l1.6,0l0,19.2l-1.6,0c-0.4,-1.4 -0.9,-2.4 -1.5,-2.9c-0.6,-0.5 -1.6,-0.8 -2.8,-0.8l-39.4,0l0,14.2l24.5,0c1.2,0 2.1,-0.3 2.7,-0.8c0.6,-0.5 1.2,-1.5 1.6,-2.9l1.6,0l0,18.7l-1.6,0c-0.4,-1.4 -0.9,-2.3 -1.5,-2.9c-0.6,-0.6 -1.6,-0.8 -2.8,-0.8l-24.4,0z" fill="#425E9C" id="svg_19"/>
      <path class="st3" d="m998.8,55l-7.8,15.1l-1.4,-0.8c0,-1.3 -0.4,-2.3 -1.2,-3c-2.2,-2 -5.4,-3.6 -9.7,-4.9c-4.3,-1.3 -8.6,-1.9 -13,-1.9c-3.7,0 -7.1,0.5 -10,1.6c-4.2,1.5 -6.3,3.7 -6.3,6.5c0,1.9 1,3.2 3,4c2,0.8 5.9,1.4 11.6,1.9l9.1,0.7c8,0.6 14.1,2.2 18.2,4.6c2.3,1.4 4.2,3.2 5.7,5.6c1.9,2.9 2.8,6.2 2.8,9.8c0,6.6 -3,11.8 -8.9,15.6c-5.7,3.7 -13.4,5.5 -23,5.5c-9.8,0 -19.2,-2.1 -28.3,-6.2c-0.6,-0.3 -1.1,-0.4 -1.6,-0.4c-0.8,0 -1.5,0.5 -2.1,1.4l-1.4,-0.6l6.7,-15.9l1.4,0.6c0,0.2 0,0.4 0,0.5c0,1 0.4,1.9 1.2,2.5c1.9,1.7 5.3,3.2 10,4.4c4.7,1.3 9.4,1.9 14.1,1.9c4.1,0 7.8,-0.5 11,-1.6c4,-1.3 6,-3.4 6,-6.4c0,-2.4 -1.4,-4 -4.2,-4.9c-1.9,-0.6 -5.2,-1.1 -10,-1.6l-9.1,-0.8c-4.9,-0.4 -8.6,-0.9 -11.2,-1.5c-2.6,-0.6 -4.8,-1.5 -6.8,-2.7c-2.5,-1.5 -4.4,-3.6 -5.8,-6.3c-1.4,-2.7 -2.1,-5.6 -2.1,-8.7c0,-7.1 3,-12.5 9.1,-16.3c5.6,-3.4 12.4,-5.1 20.6,-5.1c4.4,0 8.6,0.5 12.4,1.5c3.8,1 8.4,2.7 13.8,5.2c1.6,0.7 2.7,1.1 3.3,1.1c0.6,0 1.4,-0.4 2.4,-1.3l1.5,0.9z" fill="#425E9C" id="svg_20"/>
     </g>
    </g>
   </g>
  </g>
 </g>
</svg>