<svg version="1.2" xmlns="http://www.w3.org/2000/svg" viewBox="0 0 390 381" width="390" height="381">
	<title>&lt;Group&gt;</title>
	<style>
		.s0 { fill: #181718 } 
	</style>
	<g id="&lt;Group&gt;">
		<path id="&lt;Path&gt;" class="s0" d="m376 196.5c0 80-51.9 147.9-123.8 171.9c-9.2 1.8-12.4-3.9-12.4-8.7c0-6 0.2-25.5 0.2-49.7c0-16.9-5.8-28-12.3-33.6c40.3-4.5 82.7-19.8 82.7-89.4c0-19.7-7-35.9-18.6-48.6c1.8-4.6 8-23-1.8-47.9q-15.2-4.9-49.8 18.5c-14.5-4-30-6-45.4-6.1c-15.4 0.1-30.9 2.1-45.3 6.1q-34.6-23.4-49.9-18.5c-9.8 24.9-3.6 43.3-1.7 47.9c-11.6 12.7-18.7 28.9-18.7 48.6c0 69.5 42.3 85 82.6 89.6c-5.2 4.5-9.9 12.5-11.5 24.2c-10.4 4.6-36.6 12.6-52.8-15.1q-9.5-17.4-27.7-18.6q-17.7-0.3-1.3 11q11.9 5.5 20.2 26.5q10.6 32.3 61 21.4c0.1 15.1 0.2 29.4 0.2 33.7c0 4.8-3.3 10.4-12.3 8.7c-72-24-123.9-91.9-123.9-171.9c0-100.1 81.1-181.2 181.1-181.2c100.1 0 181.2 81.1 181.2 181.2z" />
		<path id="&lt;Compound Path&gt;" class="s0" d="m82.3 275.4c-0.4 0.9-1.8 1.2-3.1 0.6c-1.3-0.6-2.1-1.8-1.7-2.7c0.4-0.9 1.9-1.2 3.2-0.6c1.3 0.6 2 1.8 1.6 2.7z" />
		<path id="&lt;Compound Path&gt;" class="s0" d="m89.6 283.6c-0.8 0.8-2.5 0.5-3.7-0.8c-1.2-1.3-1.4-3-0.5-3.8c0.9-0.8 2.5-0.4 3.7 0.9c1.2 1.2 1.4 2.9 0.5 3.7z" />
		<path id="&lt;Compound Path&gt;" class="s0" d="m96.8 294.1c-1.1 0.7-3 0-4.1-1.6c-1.1-1.6-1.1-3.5 0-4.3c1.2-0.8 3-0.1 4.1 1.5c1.1 1.6 1.1 3.6 0 4.4z" />
		<path id="&lt;Compound Path&gt;" class="s0" d="m106.5 304.1c-0.9 1.1-3.1 0.8-4.6-0.6c-1.6-1.5-2-3.6-1-4.7c1-1.1 3.1-0.8 4.7 0.7c1.5 1.5 2 3.6 0.9 4.6z" />
		<path id="&lt;Compound Path&gt;" class="s0" d="m120 310c-0.4 1.4-2.4 2.1-4.5 1.5c-2-0.7-3.4-2.3-3-3.8c0.5-1.4 2.5-2.1 4.6-1.4c2 0.6 3.4 2.3 2.9 3.7z" />
		<path id="&lt;Compound Path&gt;" class="s0" d="m134.9 311.1c0 1.5-1.7 2.7-3.9 2.7c-2.1 0.1-3.9-1.1-3.9-2.6c0-1.5 1.7-2.7 3.9-2.8c2.1 0 3.9 1.2 3.9 2.7z" />
		<path id="&lt;Compound Path&gt;" class="s0" d="m148.7 308.7c0.2 1.5-1.3 3-3.4 3.4c-2.1 0.4-4.1-0.5-4.3-2c-0.3-1.5 1.2-3 3.3-3.4c2.2-0.3 4.1 0.6 4.4 2z" />
	</g>
</svg>